<svg width="100" height="88" viewBox="0 0 100 88" fill="none" xmlns="http://www.w3.org/2000/svg">
<path d="M6.00387 37.626H15.5655L49.0653 13.2425C49.4561 12.9581 49.9852 12.9565 50.3777 13.2385L84.3225 37.626H93.9422C95.8804 37.626 96.7016 35.1577 95.1498 33.9965L50.3947 0.504901C49.9952 0.205903 49.446 0.20738 49.0481 0.508524L4.78752 34.003C3.24638 35.1693 4.07117 37.626 6.00387 37.626Z" fill="#06709E"/>
<path d="M20.1564 78.8353V43.449L12.7656 49.384V82.7547C12.7656 85.2285 14.7711 87.234 17.2449 87.234H83.7623C86.2361 87.234 88.2415 85.2285 88.2415 82.7547V49.384L81.0747 43.449V78.8353C81.0747 80.3196 79.8714 81.5229 78.3871 81.5229H22.844C21.3597 81.5229 20.1564 80.3196 20.1564 78.8353Z" fill="#06709E"/>
<path d="M42.3462 29.0979C42.8322 29.4975 43.2733 29.933 43.7083 30.3871C43.7902 30.471 43.872 30.5549 43.9563 30.6414C45.812 32.6693 46.221 35.2435 46.1316 37.8923C45.985 40.2352 44.7219 42.2916 43.0415 43.8567C40.9307 45.6672 38.4948 46.2974 35.766 46.1509C33.3687 45.9522 31.3239 44.7989 29.7053 43.0565C28.9881 42.2007 28.3958 41.29 27.9716 40.2559C27.9192 40.1285 27.8667 40.0012 27.8127 39.8699C26.9868 37.4899 27.2461 34.7685 28.305 32.5209C28.8338 31.4665 29.5283 30.6675 30.3721 29.8537C30.4565 29.7652 30.5409 29.6766 30.6279 29.5854C33.6184 26.6477 39.084 26.6642 42.3462 29.0979ZM36.1067 30.2538C35.9523 30.717 35.9642 31.1021 35.9733 31.5874C35.833 31.6039 35.833 31.6039 35.6899 31.6207C34.849 31.8401 34.3365 32.3779 33.8395 33.0544C33.4793 33.6719 33.4872 34.3601 33.5728 35.0548C33.804 35.7858 34.1407 36.2155 34.7731 36.6552C35.1576 36.813 35.1576 36.813 35.5732 36.9219C35.7242 36.9657 35.8751 37.0096 36.0306 37.0547C36.1878 37.0989 36.3449 37.1431 36.5068 37.1886C36.8239 37.279 37.1406 37.3706 37.457 37.4637C37.5976 37.5037 37.7382 37.5438 37.8831 37.585C38.2439 37.7234 38.4161 37.8115 38.6406 38.1221C38.8322 38.7245 38.8304 39.1954 38.5739 39.7725C38.0381 40.335 37.5458 40.4961 36.7818 40.581C36.1693 40.5548 35.6711 40.3411 35.1732 39.9892C34.8584 39.601 34.7724 39.3197 34.6564 38.8306C34.5532 38.3632 34.5532 38.3632 34.1563 38.1972C33.8233 38.0805 33.8233 38.0805 33.4978 38.3138C33.1511 38.6104 33.1511 38.6104 33.1394 38.9254C33.2188 39.8947 33.5716 40.5763 34.2896 41.2228C34.8054 41.6368 35.2944 41.9896 35.9733 41.9896C35.9651 42.1299 35.9568 42.2702 35.9483 42.4147C35.9744 42.9443 36.0671 43.1688 36.3734 43.59C36.9524 43.5654 36.9524 43.5654 37.4403 43.3233C37.4499 43.0984 37.4515 42.8732 37.4486 42.6481C37.4474 42.5255 37.4462 42.403 37.445 42.2767C37.4435 42.182 37.4419 42.0872 37.4403 41.9896C37.6053 41.9773 37.6053 41.9773 37.7737 41.9646C38.7268 41.7434 39.4224 41.1934 39.9742 40.3893C40.4148 39.5187 40.4884 38.7384 40.2409 37.7887C39.9756 37.0744 39.5571 36.6447 38.9073 36.2551C38.3408 36.0291 37.7634 35.8744 37.1736 35.7216C36.8535 35.632 36.5339 35.5404 36.215 35.4466C36.0729 35.4065 35.9307 35.3665 35.7842 35.3252C35.4399 35.1882 35.4399 35.1882 35.1732 34.7881C35.1148 34.338 35.1148 34.338 35.1732 33.8546C35.5303 33.4222 35.8239 33.0854 36.3963 33.0226C36.9652 33.0062 37.3678 33.0241 37.8987 33.2461C38.3027 33.65 38.4088 33.9723 38.5421 34.5182C38.6282 34.8368 38.6282 34.8368 39.0407 35.0548C39.3852 35.0437 39.3852 35.0437 39.7075 34.9215C40.0416 34.4203 39.9932 34.1995 39.9122 33.6248C39.7225 32.8174 39.1559 32.3247 38.5072 31.8541C38.2 31.6996 37.8959 31.5765 37.5737 31.454C37.5702 31.372 37.5668 31.29 37.5633 31.2055C37.5342 30.5282 37.5342 30.5282 37.1819 29.9787C36.6839 29.7524 36.5002 29.9111 36.1067 30.2538Z" fill="#293145"/>
<path d="M65.8574 55.0991C68.8941 55.0991 71.9307 55.0991 75.0594 55.0991C75.0594 62.3607 75.0594 69.6222 75.0594 77.1039C72.0227 77.1039 68.9861 77.1039 65.8574 77.1039C65.8574 69.8423 65.8574 62.5807 65.8574 55.0991Z" fill="#4D4D4D"/>
<path d="M52.6562 60.3C55.6929 60.3 58.7296 60.3 61.8582 60.3C61.8582 65.8452 61.8582 71.3904 61.8582 77.1037C58.8216 77.1037 55.7849 77.1037 52.6562 77.1037C52.6562 71.5585 52.6562 66.0133 52.6562 60.3Z" fill="#293145"/>
<path d="M39.4531 65.5012C42.4898 65.5012 45.5264 65.5012 48.6551 65.5012C48.6551 69.33 48.6551 73.1589 48.6551 77.1037C45.6184 77.1037 42.5818 77.1037 39.4531 77.1037C39.4531 73.2749 39.4531 69.4461 39.4531 65.5012Z" fill="#176C9A"/>
<path d="M26.25 69.9021C29.2867 69.9021 32.3233 69.9021 35.452 69.9021C35.452 72.2786 35.452 74.6551 35.452 77.1036C32.4153 77.1036 29.3787 77.1036 26.25 77.1036C26.25 74.7271 26.25 72.3506 26.25 69.9021Z" fill="#78D4FF"/>
<path d="M41.4527 48.5642C41.7608 48.8283 42.0688 49.0923 42.3862 49.3644C42.5183 49.4524 42.6503 49.5404 42.7863 49.6311C42.5888 50.0898 42.3297 50.3872 41.9768 50.7381C41.8681 50.8465 41.7595 50.9549 41.6475 51.0666C41.5337 51.1787 41.4199 51.2909 41.3027 51.4065C41.192 51.5171 41.0813 51.6277 40.9672 51.7417C40.494 52.2115 40.0196 52.6708 39.5125 53.1039C38.8186 53.7075 38.1763 54.3617 37.5299 55.015C37.3027 55.2445 37.0749 55.4736 36.8471 55.7026C36.2001 56.3527 35.554 57.0037 34.9084 57.6552C34.5117 58.0555 34.1144 58.4551 33.7166 58.8543C33.5655 59.0063 33.4145 59.1585 33.2639 59.311C33.0545 59.523 32.8443 59.7341 32.634 59.945C32.5146 60.0654 32.3952 60.1858 32.2722 60.3098C31.984 60.5668 31.984 60.5668 31.7173 60.5668C31.5503 60.3742 31.3838 60.181 31.226 59.9807C31.0481 59.7637 30.8488 59.5649 30.6504 59.3665C34.2152 55.8018 37.7799 52.237 41.4527 48.5642Z" fill="#293145"/>
<path d="M69.4632 40.7216C70.007 40.945 70.3413 41.4198 70.6589 41.8962C67.4022 45.1529 64.1455 48.4096 60.7901 51.765C60.5701 51.545 60.35 51.3249 60.1233 51.0982C59.9484 50.9611 59.7716 50.826 59.5898 50.6981C59.6676 50.2682 59.7886 50.0488 60.0951 49.7401C60.1742 49.6595 60.2533 49.5789 60.3348 49.4959C60.422 49.4091 60.5092 49.3222 60.5991 49.2328C60.7364 49.0938 60.7364 49.0938 60.8764 48.952C61.1795 48.6458 61.484 48.3412 61.7888 48.0366C61.9996 47.8248 62.2104 47.6129 62.4212 47.4011C62.8633 46.9572 63.3061 46.5142 63.7494 46.0716C64.3186 45.5033 64.8853 44.9325 65.4513 44.3611C65.8859 43.923 66.3221 43.4865 66.7587 43.0504C66.9683 42.8405 67.1774 42.6301 67.386 42.4191C67.6772 42.125 67.9704 41.833 68.2643 41.5415C68.3507 41.4534 68.4371 41.3652 68.5261 41.2743C68.6063 41.1956 68.6865 41.1169 68.7692 41.0358C68.8383 40.9665 68.9075 40.8973 68.9788 40.8259C69.1919 40.696 69.1919 40.696 69.4632 40.7216Z" fill="#293145"/>
<path d="M58.8321 51.7066C59.3802 52.2037 59.7902 52.6886 59.9125 53.4361C59.9354 54.1274 59.8639 54.655 59.4572 55.2323C58.8467 55.8456 58.3769 56.1814 57.4901 56.2075C56.7847 56.1993 56.4224 56.0512 55.8564 55.6324C55.3423 55.1044 55.0691 54.5969 55.0469 53.8508C55.0887 53.0383 55.2784 52.4796 55.8564 51.8983C56.7718 51.2285 57.8182 51.2283 58.8321 51.7066Z" fill="#26A0DA"/>
<path d="M73.7528 36.3033C74.3003 36.6804 74.7621 37.1632 75.0614 37.762C75.1284 38.4957 75.1631 39.1473 74.8447 39.8207C74.1672 40.5518 73.6993 40.9206 72.6943 41.0043C71.9085 40.9926 71.32 40.6613 70.7438 40.1458C70.3795 39.5011 70.198 38.8404 70.3104 38.099C70.5555 37.265 70.9674 36.7989 71.6941 36.32C72.409 36.0588 73.0318 36.063 73.7528 36.3033Z" fill="#26A0DA"/>
<path d="M29.6194 60.4225C30.2145 60.7643 30.6103 61.1423 30.9165 61.7671C31.1214 62.6004 31.0629 63.2714 30.6498 64.0342C30.18 64.5893 29.6389 64.971 28.9161 65.1011C28.107 65.1114 27.5491 64.9647 26.9157 64.4343C26.2902 63.7412 26.192 63.1937 26.2041 62.2818C26.2752 61.6759 26.4937 61.2698 26.9157 60.8336C27.6916 60.2262 28.697 60.0501 29.6194 60.4225Z" fill="#26A0DA"/>
<path d="M45.8773 44.2451C46.5264 44.5711 46.9356 45.0977 47.188 45.7637C47.3214 46.5088 47.2869 47.1553 46.913 47.8224C46.5494 48.3157 46.1814 48.6545 45.5877 48.831C44.7597 48.9358 44.0191 48.9299 43.3205 48.4309C42.7654 47.8632 42.3945 47.3551 42.3828 46.5414C42.442 45.6578 42.7315 45.1141 43.4039 44.5217C44.1213 44.012 45.0358 44.0075 45.8773 44.2451Z" fill="#26A0DA"/>
<path d="M48.5209 47.6309C49.6215 48.1647 50.6853 48.7423 51.7382 49.3646C51.9396 49.4827 51.9396 49.4827 52.1451 49.6032C52.985 50.0964 53.821 50.596 54.6555 51.0983C54.3915 51.5824 54.1274 52.0665 53.8554 52.5653C53.2713 52.4485 52.9949 52.3497 52.503 52.0573C52.3722 51.9803 52.2413 51.9032 52.1065 51.8238C51.9685 51.7411 51.8305 51.6585 51.6882 51.5734C51.5467 51.4897 51.4053 51.4061 51.2595 51.3199C50.9723 51.15 50.6853 50.9797 50.3986 50.8091C49.9179 50.5232 49.4358 50.2398 48.9534 49.9568C48.5421 49.7156 48.1314 49.4734 47.7207 49.2312C47.9402 48.6588 48.2107 48.1582 48.5209 47.6309Z" fill="#293145"/>
</svg>
